<?xml version="1.0" standalone="no"?>
<!DOCTYPE svg PUBLIC "-//W3C//DTD SVG 20010904//EN"
 "http://www.w3.org/TR/2001/REC-SVG-20010904/DTD/svg10.dtd">
<svg version="1.0" xmlns="http://www.w3.org/2000/svg"
 width="700.000000pt" height="700.000000pt" viewBox="0 0 700.000000 700.000000"
 preserveAspectRatio="xMidYMid meet">
<metadata>
Created by potrace 1.14, written by Peter Selinger 2001-2017
</metadata>
<g transform="translate(0.000000,700.000000) scale(0.100000,-0.100000)"
fill="#000000" stroke="none">
<path d="M2229 6995 c-2 -1 -33 -6 -69 -9 -51 -6 -229 -37 -285 -50 -5 -2 -23
-6 -40 -10 -290 -72 -604 -222 -850 -406 -140 -105 -142 -107 -276 -242 -196
-196 -349 -410 -467 -658 -70 -146 -78 -165 -122 -298 -84 -257 -118 -479
-118 -767 1 -223 15 -359 60 -550 11 -49 21 -92 21 -95 -1 -3 19 -63 44 -135
177 -515 515 -952 970 -1255 122 -81 368 -205 507 -256 91 -33 277 -85 351
-99 98 -18 222 -34 299 -40 92 -7 327 -8 381 -1 17 2 57 6 90 10 80 9 216 34
290 53 33 8 68 16 77 18 9 2 71 22 137 44 227 76 476 207 664 349 31 24 62 42
68 40 6 -2 140 -133 299 -292 l289 -288 -24 -32 c-51 -68 -65 -148 -39 -233
17 -57 28 -69 883 -925 l866 -868 65 0 65 0 318 318 c296 296 317 319 317 352
0 34 -45 81 -866 900 -991 990 -881 883 -921 903 -77 40 -177 33 -252 -17
l-49 -33 -292 292 -293 293 49 63 c190 246 353 579 429 879 128 505 96 1024
-92 1505 -94 238 -243 489 -407 680 -58 69 -227 239 -278 281 -165 138 -323
241 -500 329 -128 63 -289 130 -339 140 -9 2 -36 10 -60 18 -67 23 -272 66
-384 81 -87 11 -507 21 -516 11z m436 -520 c22 -3 54 -8 70 -10 46 -6 134 -24
179 -36 23 -6 48 -13 56 -14 119 -25 385 -149 535 -249 555 -370 871 -974 860
-1641 -2 -88 -5 -169 -8 -180 -3 -11 -8 -45 -11 -76 -4 -31 -18 -102 -31 -157
-149 -617 -576 -1107 -1171 -1347 -81 -33 -209 -72 -263 -81 -14 -3 -32 -7
-40 -10 -8 -2 -30 -7 -50 -10 -20 -3 -41 -7 -48 -9 -35 -12 -177 -20 -328 -19
-422 2 -811 137 -1160 402 -74 56 -256 236 -320 317 -168 209 -298 472 -365
740 -44 175 -55 275 -54 490 3 596 287 1156 772 1520 73 55 253 168 271 171 3
0 40 17 81 36 127 61 306 118 445 142 17 3 40 8 52 10 12 3 53 8 90 11 37 4
70 9 72 11 5 5 322 -4 366 -11z"/>
</g>
</svg>
